<svg width="486" height="365" viewBox="0 0 486 365" fill="none" xmlns="http://www.w3.org/2000/svg">
<g clip-path="url(#clip0_2012_858)">
<path d="M123.894 303.878C64.3191 275.227 -0.610284 307.682 -0.610284 307.682L-0.610019 345.327C-0.609947 355.664 7.74152 363.713 18.4674 363.713L464.345 363.713C476.075 363.713 485.998 354.15 485.998 342.844L485.998 202.043C485.998 202.043 421.7 194.901 335.311 274.326C266.441 337.643 210.82 345.684 123.894 303.878Z" fill="url(#paint0_linear_2012_858)" fill-opacity="0.5"/>
<path d="M-67.8859 351.48C-24.6548 310.289 57.5298 271.731 125.072 304.22C211.996 346.033 267.619 337.986 336.497 274.642C428.169 190.335 487.547 196.614 567.422 209.359" stroke="#FF4D14" stroke-width="2"/>
<path d="M110.88 233.158C44.627 218.17 -0.467362 273.284 -0.467362 273.284L-0.467171 345.076C-0.46714 356.115 8.47151 365.041 19.5059 365.02L467.03 364.178C478.082 364.157 487.047 355.171 487.047 344.114L487.048 21.1782C487.047 10.1534 478.132 1.23356 467.112 1.23356L362.208 1.2335C362.208 1.2335 337.271 43.635 318.909 96.2244C275.154 221.541 220.544 257.965 110.88 233.158Z" fill="url(#paint1_linear_2012_858)" fill-opacity="0.2"/>
<path d="M-3.57818 276.29C-3.57818 276.29 44.2199 217.757 112.264 233.157C221.928 257.976 276.54 221.541 320.29 96.1813C344.09 27.9844 362.376 0.328476 362.376 0.328476" stroke="#FF4D14" stroke-opacity="0.5" stroke-width="2"/>
</g>
<defs>
<linearGradient id="paint0_linear_2012_858" x1="290.412" y1="145.232" x2="212.507" y2="481.764" gradientUnits="userSpaceOnUse">
<stop stop-color="#FF4D14"/>
<stop offset="1" stop-color="#FF4D14" stop-opacity="0"/>
</linearGradient>
<linearGradient id="paint1_linear_2012_858" x1="214.194" y1="-78.1873" x2="256.413" y2="463.872" gradientUnits="userSpaceOnUse">
<stop stop-color="#FF4D14"/>
<stop offset="1" stop-color="#FF4D14" stop-opacity="0"/>
</linearGradient>
<clipPath id="clip0_2012_858">
<rect width="486" height="365" fill="white"/>
</clipPath>
</defs>
</svg>
