<svg width="375" height="782" viewBox="0 0 375 782" fill="none" xmlns="http://www.w3.org/2000/svg">
<g clip-path="url(#clip0_1125_14)">
<circle cx="-45" cy="763" r="47.25" stroke="#BABABA" stroke-width="1.5"/>
<circle cx="-45" cy="763" r="51.25" stroke="#BABABA" stroke-width="1.5"/>
<circle cx="-45" cy="763" r="56.25" stroke="#BABABA" stroke-width="1.5"/>
<circle cx="-45" cy="763" r="62.25" stroke="#BABABA" stroke-width="1.5"/>
<circle cx="-45" cy="763" r="70.25" stroke="#BABABA" stroke-width="1.5"/>
<circle cx="-45" cy="763" r="80.25" stroke="#BABABA" stroke-width="1.5"/>
<circle cx="-45" cy="763" r="92.25" stroke="#BABABA" stroke-width="1.5"/>
<circle cx="-45" cy="763" r="107.25" stroke="#BABABA" stroke-width="1.5"/>
<circle cx="-45" cy="763" r="124.25" stroke="#BABABA" stroke-width="1.5"/>
<circle cx="-45" cy="763" r="142.25" stroke="#BABABA" stroke-width="1.5"/>
<circle cx="-45" cy="763" r="162.25" stroke="#BABABA" stroke-width="1.5"/>
<circle cx="-45" cy="763" r="187.25" stroke="#BABABA" stroke-width="1.5"/>
<circle cx="-45" cy="763" r="248.25" stroke="#BABABA" stroke-width="1.5"/>
<circle cx="-45" cy="763" r="283.25" stroke="#BABABA" stroke-width="1.5"/>
<circle cx="-45" cy="763" r="321.25" stroke="#BABABA" stroke-width="1.5"/>
<circle cx="-45" cy="763" r="363.25" stroke="#BABABA" stroke-width="1.5"/>
<circle cx="-45" cy="763" r="411.25" stroke="#BABABA" stroke-width="1.5"/>
<circle cx="-45" cy="763" r="470.25" stroke="#BABABA" stroke-width="1.5"/>
<circle cx="-45" cy="763" r="534.25" stroke="#BABABA" stroke-width="1.5"/>
<circle cx="-45" cy="763" r="607.25" stroke="#BABABA" stroke-width="1.5"/>
<circle cx="-45" cy="763" r="683.25" stroke="#BABABA" stroke-width="1.5"/>
<circle cx="-45" cy="763" r="765.25" stroke="#BABABA" stroke-width="1.5"/>
<circle cx="-45" cy="763" r="860.25" stroke="#BABABA" stroke-width="1.5"/>
<circle cx="-45" cy="763" r="967.25" stroke="#BABABA" stroke-width="1.5"/>
<circle cx="-45" cy="763" r="1087.25" stroke="#BABABA" stroke-width="1.5"/>
<circle cx="-45" cy="763" r="1220.25" stroke="#BABABA" stroke-width="1.5"/>
<circle cx="-45" cy="763" r="216.25" stroke="#BABABA" stroke-width="1.5"/>
</g>
<defs>
<clipPath id="clip0_1125_14">
<rect width="375" height="782" fill="white"/>
</clipPath>
</defs>
</svg>
