<svg width="898" height="518" viewBox="0 0 898 518" fill="none" xmlns="http://www.w3.org/2000/svg">
<path d="M762.871 36.4274L848.126 85.6496L848.126 184.094L762.871 233.316L677.616 184.094L677.616 85.6496L762.871 36.4274Z" stroke="white" stroke-opacity="0.1" stroke-width="0.5"/>
<path d="M13.4777 222.511L98.733 173.289L183.988 222.511V320.955L98.733 370.177L13.4777 320.955V222.511Z" stroke="white" stroke-opacity="0.1" stroke-width="0.5"/>
<path d="M183.388 222.511L268.643 173.289L353.898 222.511V320.955L268.643 370.177L183.388 320.955V222.511Z" stroke="white" stroke-opacity="0.1" stroke-width="0.5"/>
<path d="M98.4328 369.463L183.688 320.241L268.943 369.463V467.907L183.688 517.129L98.4328 467.907V369.463Z" stroke="white" stroke-opacity="0.1" stroke-width="0.5"/>
<path d="M267.808 369.463L353.063 320.241L438.318 369.463V467.907L353.063 517.129L267.808 467.907V369.463Z" stroke="white" stroke-opacity="0.1" stroke-width="0.5"/>
<path d="M353.302 222.511L438.557 173.289L523.812 222.511V320.955L438.557 370.177L353.302 320.955V222.511Z" stroke="white" stroke-opacity="0.1" stroke-width="0.5"/>
</svg>
